<?xml version="1.0" encoding="UTF-8" standalone="no"?>
<!DOCTYPE svg PUBLIC "-//W3C//DTD SVG 1.1//EN"
 "http://www.w3.org/Graphics/SVG/1.1/DTD/svg11.dtd">
<!-- Generated by graphviz version 14.1.2 (20260124.0452)
 -->
<!-- Title: bt_composites_crosswalk Pages: 1 -->
<svg width="239pt" height="388pt"
 viewBox="0.00 0.00 239.00 388.00" xmlns="http://www.w3.org/2000/svg" xmlns:xlink="http://www.w3.org/1999/xlink">
<g id="graph0" class="graph" transform="scale(1 1) rotate(0) translate(4 384)">
<title>bt_composites_crosswalk</title>
<polygon fill="white" stroke="none" points="-4,4 -4,-384 235.25,-384 235.25,4 -4,4"/>
<text xml:space="preserve" text-anchor="middle" x="115.62" y="-365.55" font-family="Helvetica,sans-Serif" font-size="11.00">muesli&#45;bt &lt;&#45;&gt; BehaviorTree.CPP composites</text>
<!-- m_seq -->
<g id="node1" class="node">
<title>m_seq</title>
<path fill="#f4f8ff" stroke="#355c7d" d="M65.75,-36C65.75,-36 14.5,-36 14.5,-36 8.5,-36 2.5,-30 2.5,-24 2.5,-24 2.5,-12 2.5,-12 2.5,-6 8.5,0 14.5,0 14.5,0 65.75,0 65.75,0 71.75,0 77.75,-6 77.75,-12 77.75,-12 77.75,-24 77.75,-24 77.75,-30 71.75,-36 65.75,-36"/>
<text xml:space="preserve" text-anchor="middle" x="40.12" y="-19.75" font-family="Helvetica,sans-Serif" font-size="10.00">seq</text>
<text xml:space="preserve" text-anchor="middle" x="40.12" y="-8.5" font-family="Helvetica,sans-Serif" font-size="10.00">(memoryless)</text>
</g>
<!-- c_seq -->
<g id="node2" class="node">
<title>c_seq</title>
<path fill="#f4f8ff" stroke="#355c7d" d="M189,-36C189,-36 153.5,-36 153.5,-36 147.5,-36 141.5,-30 141.5,-24 141.5,-24 141.5,-12 141.5,-12 141.5,-6 147.5,0 153.5,0 153.5,0 189,0 189,0 195,0 201,-6 201,-12 201,-12 201,-24 201,-24 201,-30 195,-36 189,-36"/>
<text xml:space="preserve" text-anchor="middle" x="171.25" y="-14.12" font-family="Helvetica,sans-Serif" font-size="10.00">Sequence</text>
</g>
<!-- m_seq&#45;&gt;c_seq -->
<g id="edge1" class="edge">
<title>m_seq&#45;&gt;c_seq</title>
<path fill="none" stroke="#355c7d" stroke-width="1.2" d="M78.13,-18C94.2,-18 113.08,-18 129.54,-18"/>
<polygon fill="#355c7d" stroke="#355c7d" stroke-width="1.2" points="129.22,-21.5 139.22,-18 129.22,-14.5 129.22,-21.5"/>
</g>
<!-- m_sel -->
<g id="node3" class="node">
<title>m_sel</title>
<path fill="#f4f8ff" stroke="#355c7d" d="M65.75,-90C65.75,-90 14.5,-90 14.5,-90 8.5,-90 2.5,-84 2.5,-78 2.5,-78 2.5,-66 2.5,-66 2.5,-60 8.5,-54 14.5,-54 14.5,-54 65.75,-54 65.75,-54 71.75,-54 77.75,-60 77.75,-66 77.75,-66 77.75,-78 77.75,-78 77.75,-84 71.75,-90 65.75,-90"/>
<text xml:space="preserve" text-anchor="middle" x="40.12" y="-73.75" font-family="Helvetica,sans-Serif" font-size="10.00">sel</text>
<text xml:space="preserve" text-anchor="middle" x="40.12" y="-62.5" font-family="Helvetica,sans-Serif" font-size="10.00">(memoryless)</text>
</g>
<!-- c_fallback -->
<g id="node4" class="node">
<title>c_fallback</title>
<path fill="#f4f8ff" stroke="#355c7d" d="M208.12,-90C208.12,-90 134.38,-90 134.38,-90 128.38,-90 122.38,-84 122.38,-78 122.38,-78 122.38,-66 122.38,-66 122.38,-60 128.38,-54 134.38,-54 134.38,-54 208.12,-54 208.12,-54 214.12,-54 220.12,-60 220.12,-66 220.12,-66 220.12,-78 220.12,-78 220.12,-84 214.12,-90 208.12,-90"/>
<text xml:space="preserve" text-anchor="middle" x="171.25" y="-68.12" font-family="Helvetica,sans-Serif" font-size="10.00">Fallback / Selector</text>
</g>
<!-- m_sel&#45;&gt;c_fallback -->
<g id="edge2" class="edge">
<title>m_sel&#45;&gt;c_fallback</title>
<path fill="none" stroke="#355c7d" stroke-width="1.2" d="M78.13,-72C88.2,-72 99.37,-72 110.36,-72"/>
<polygon fill="#355c7d" stroke="#355c7d" stroke-width="1.2" points="110.34,-75.5 120.34,-72 110.34,-68.5 110.34,-75.5"/>
</g>
<!-- m_mem_seq -->
<g id="node5" class="node">
<title>m_mem_seq</title>
<path fill="#f4f8ff" stroke="#355c7d" d="M56.38,-144C56.38,-144 23.88,-144 23.88,-144 17.87,-144 11.88,-138 11.88,-132 11.88,-132 11.88,-120 11.88,-120 11.88,-114 17.88,-108 23.88,-108 23.88,-108 56.38,-108 56.38,-108 62.38,-108 68.38,-114 68.38,-120 68.38,-120 68.38,-132 68.38,-132 68.38,-138 62.38,-144 56.38,-144"/>
<text xml:space="preserve" text-anchor="middle" x="40.12" y="-122.12" font-family="Helvetica,sans-Serif" font-size="10.00">mem&#45;seq</text>
</g>
<!-- c_mem_seq -->
<g id="node6" class="node">
<title>c_mem_seq</title>
<path fill="#f4f8ff" stroke="#355c7d" d="M216.75,-144C216.75,-144 125.75,-144 125.75,-144 119.75,-144 113.75,-138 113.75,-132 113.75,-132 113.75,-120 113.75,-120 113.75,-114 119.75,-108 125.75,-108 125.75,-108 216.75,-108 216.75,-108 222.75,-108 228.75,-114 228.75,-120 228.75,-120 228.75,-132 228.75,-132 228.75,-138 222.75,-144 216.75,-144"/>
<text xml:space="preserve" text-anchor="middle" x="171.25" y="-122.12" font-family="Helvetica,sans-Serif" font-size="10.00">SequenceWithMemory</text>
</g>
<!-- m_mem_seq&#45;&gt;c_mem_seq -->
<g id="edge3" class="edge">
<title>m_mem_seq&#45;&gt;c_mem_seq</title>
<path fill="none" stroke="#355c7d" stroke-width="1.2" d="M68.83,-126C78.61,-126 90.09,-126 101.74,-126"/>
<polygon fill="#355c7d" stroke="#355c7d" stroke-width="1.2" points="101.57,-129.5 111.57,-126 101.57,-122.5 101.57,-129.5"/>
</g>
<!-- m_mem_sel -->
<g id="node7" class="node">
<title>m_mem_sel</title>
<path fill="#f4f8ff" stroke="#355c7d" d="M55.12,-198C55.12,-198 25.12,-198 25.12,-198 19.13,-198 13.12,-192 13.12,-186 13.12,-186 13.12,-174 13.12,-174 13.12,-168 19.12,-162 25.12,-162 25.12,-162 55.12,-162 55.12,-162 61.12,-162 67.12,-168 67.12,-174 67.12,-174 67.12,-186 67.12,-186 67.12,-192 61.12,-198 55.12,-198"/>
<text xml:space="preserve" text-anchor="middle" x="40.12" y="-176.12" font-family="Helvetica,sans-Serif" font-size="10.00">mem&#45;sel</text>
</g>
<!-- c_mem_sel -->
<g id="node8" class="node">
<title>c_mem_sel</title>
<path fill="#f4f8ff" stroke="#355c7d" d="M215.25,-198C215.25,-198 127.25,-198 127.25,-198 121.25,-198 115.25,-192 115.25,-186 115.25,-186 115.25,-174 115.25,-174 115.25,-168 121.25,-162 127.25,-162 127.25,-162 215.25,-162 215.25,-162 221.25,-162 227.25,-168 227.25,-174 227.25,-174 227.25,-186 227.25,-186 227.25,-192 221.25,-198 215.25,-198"/>
<text xml:space="preserve" text-anchor="middle" x="171.25" y="-181.75" font-family="Helvetica,sans-Serif" font-size="10.00">Fallback with memory</text>
<text xml:space="preserve" text-anchor="middle" x="171.25" y="-170.5" font-family="Helvetica,sans-Serif" font-size="10.00">(closest analogue)</text>
</g>
<!-- m_mem_sel&#45;&gt;c_mem_sel -->
<g id="edge4" class="edge">
<title>m_mem_sel&#45;&gt;c_mem_sel</title>
<path fill="none" stroke="#355c7d" stroke-width="1.2" d="M67.57,-180C78.02,-180 90.54,-180 103.2,-180"/>
<polygon fill="#355c7d" stroke="#355c7d" stroke-width="1.2" points="102.98,-183.5 112.98,-180 102.98,-176.5 102.98,-183.5"/>
</g>
<!-- m_async_seq -->
<g id="node9" class="node">
<title>m_async_seq</title>
<path fill="#f4f8ff" stroke="#355c7d" d="M58.62,-252C58.62,-252 21.62,-252 21.62,-252 15.62,-252 9.63,-246 9.63,-240 9.63,-240 9.63,-228 9.63,-228 9.63,-222 15.63,-216 21.63,-216 21.63,-216 58.63,-216 58.63,-216 64.62,-216 70.62,-222 70.62,-228 70.62,-228 70.62,-240 70.62,-240 70.62,-246 64.62,-252 58.62,-252"/>
<text xml:space="preserve" text-anchor="middle" x="40.12" y="-230.12" font-family="Helvetica,sans-Serif" font-size="10.00">async&#45;seq</text>
</g>
<!-- c_async_seq -->
<g id="node10" class="node">
<title>c_async_seq</title>
<path fill="#f4f8ff" stroke="#355c7d" d="M202.88,-252C202.88,-252 139.62,-252 139.62,-252 133.62,-252 127.62,-246 127.62,-240 127.62,-240 127.62,-228 127.62,-228 127.62,-222 133.62,-216 139.62,-216 139.62,-216 202.88,-216 202.88,-216 208.88,-216 214.88,-222 214.88,-228 214.88,-228 214.88,-240 214.88,-240 214.88,-246 208.88,-252 202.88,-252"/>
<text xml:space="preserve" text-anchor="middle" x="171.25" y="-230.12" font-family="Helvetica,sans-Serif" font-size="10.00">AsyncSequence</text>
</g>
<!-- m_async_seq&#45;&gt;c_async_seq -->
<g id="edge5" class="edge">
<title>m_async_seq&#45;&gt;c_async_seq</title>
<path fill="none" stroke="#355c7d" stroke-width="1.2" d="M71.07,-234C84.37,-234 100.45,-234 115.76,-234"/>
<polygon fill="#355c7d" stroke="#355c7d" stroke-width="1.2" points="115.44,-237.5 125.44,-234 115.44,-230.5 115.44,-237.5"/>
</g>
<!-- m_rseq -->
<g id="node11" class="node">
<title>m_rseq</title>
<path fill="#f4f8ff" stroke="#355c7d" d="M62.75,-306C62.75,-306 17.5,-306 17.5,-306 11.5,-306 5.5,-300 5.5,-294 5.5,-294 5.5,-282 5.5,-282 5.5,-276 11.5,-270 17.5,-270 17.5,-270 62.75,-270 62.75,-270 68.75,-270 74.75,-276 74.75,-282 74.75,-282 74.75,-294 74.75,-294 74.75,-300 68.75,-306 62.75,-306"/>
<text xml:space="preserve" text-anchor="middle" x="40.12" y="-284.12" font-family="Helvetica,sans-Serif" font-size="10.00">reactive&#45;seq</text>
</g>
<!-- c_rseq -->
<g id="node12" class="node">
<title>c_rseq</title>
<path fill="#f4f8ff" stroke="#355c7d" d="M208.5,-306C208.5,-306 134,-306 134,-306 128,-306 122,-300 122,-294 122,-294 122,-282 122,-282 122,-276 128,-270 134,-270 134,-270 208.5,-270 208.5,-270 214.5,-270 220.5,-276 220.5,-282 220.5,-282 220.5,-294 220.5,-294 220.5,-300 214.5,-306 208.5,-306"/>
<text xml:space="preserve" text-anchor="middle" x="171.25" y="-284.12" font-family="Helvetica,sans-Serif" font-size="10.00">ReactiveSequence</text>
</g>
<!-- m_rseq&#45;&gt;c_rseq -->
<g id="edge6" class="edge">
<title>m_rseq&#45;&gt;c_rseq</title>
<path fill="none" stroke="#355c7d" stroke-width="1.2" d="M75.05,-288C85.92,-288 98.3,-288 110.46,-288"/>
<polygon fill="#355c7d" stroke="#355c7d" stroke-width="1.2" points="110.17,-291.5 120.17,-288 110.17,-284.5 110.17,-291.5"/>
</g>
<!-- m_rsel -->
<g id="node13" class="node">
<title>m_rsel</title>
<path fill="#f4f8ff" stroke="#355c7d" d="M61.25,-360C61.25,-360 19,-360 19,-360 13,-360 7,-354 7,-348 7,-348 7,-336 7,-336 7,-330 13,-324 19,-324 19,-324 61.25,-324 61.25,-324 67.25,-324 73.25,-330 73.25,-336 73.25,-336 73.25,-348 73.25,-348 73.25,-354 67.25,-360 61.25,-360"/>
<text xml:space="preserve" text-anchor="middle" x="40.12" y="-338.12" font-family="Helvetica,sans-Serif" font-size="10.00">reactive&#45;sel</text>
</g>
<!-- c_rsel -->
<g id="node14" class="node">
<title>c_rsel</title>
<path fill="#f4f8ff" stroke="#355c7d" d="M205.12,-360C205.12,-360 137.38,-360 137.38,-360 131.38,-360 125.38,-354 125.38,-348 125.38,-348 125.38,-336 125.38,-336 125.38,-330 131.38,-324 137.38,-324 137.38,-324 205.12,-324 205.12,-324 211.12,-324 217.12,-330 217.12,-336 217.12,-336 217.12,-348 217.12,-348 217.12,-354 211.12,-360 205.12,-360"/>
<text xml:space="preserve" text-anchor="middle" x="171.25" y="-338.12" font-family="Helvetica,sans-Serif" font-size="10.00">ReactiveFallback</text>
</g>
<!-- m_rsel&#45;&gt;c_rsel -->
<g id="edge7" class="edge">
<title>m_rsel&#45;&gt;c_rsel</title>
<path fill="none" stroke="#355c7d" stroke-width="1.2" d="M73.71,-342C85.73,-342 99.73,-342 113.27,-342"/>
<polygon fill="#355c7d" stroke="#355c7d" stroke-width="1.2" points="113.18,-345.5 123.18,-342 113.18,-338.5 113.18,-345.5"/>
</g>
</g>
</svg>
