<?xml version="1.0" encoding="UTF-8" standalone="no"?>
<!DOCTYPE svg PUBLIC "-//W3C//DTD SVG 1.1//EN"
 "http://www.w3.org/Graphics/SVG/1.1/DTD/svg11.dtd">
<!-- Generated by graphviz version 14.1.2 (20260124.0452)
 -->
<!-- Title: ExecutionLoop Pages: 1 -->
<svg width="757pt" height="99pt"
 viewBox="0.00 0.00 757.00 99.00" xmlns="http://www.w3.org/2000/svg" xmlns:xlink="http://www.w3.org/1999/xlink">
<g id="graph0" class="graph" transform="scale(1 1) rotate(0) translate(14.4 84.4)">
<title>ExecutionLoop</title>
<polygon fill="white" stroke="none" points="-14.4,14.4 -14.4,-84.4 742.65,-84.4 742.65,14.4 -14.4,14.4"/>
<!-- observe -->
<g id="node1" class="node">
<title>observe</title>
<path fill="#e6fffa" stroke="#319795" d="M70,-36C70,-36 12,-36 12,-36 6,-36 0,-30 0,-24 0,-24 0,-12 0,-12 0,-6 6,0 12,0 12,0 70,0 70,0 76,0 82,-6 82,-12 82,-12 82,-24 82,-24 82,-30 76,-36 70,-36"/>
<text xml:space="preserve" text-anchor="middle" x="41" y="-13.55" font-family="Helvetica,sans-Serif" font-size="11.00">env.observe()</text>
</g>
<!-- write -->
<g id="node2" class="node">
<title>write</title>
<path fill="#fff5f5" stroke="#c53030" d="M241.5,-70C241.5,-70 137,-70 137,-70 131,-70 125,-64 125,-58 125,-58 125,-46 125,-46 125,-40 131,-34 137,-34 137,-34 241.5,-34 241.5,-34 247.5,-34 253.5,-40 253.5,-46 253.5,-46 253.5,-58 253.5,-58 253.5,-64 247.5,-70 241.5,-70"/>
<text xml:space="preserve" text-anchor="middle" x="189.25" y="-47.55" font-family="Helvetica,sans-Serif" font-size="11.00">write obs &#45;&gt; blackboard</text>
</g>
<!-- observe&#45;&gt;write -->
<g id="edge1" class="edge">
<title>observe&#45;&gt;write</title>
<path fill="none" stroke="#4a5568" stroke-width="1.2" d="M82.35,-27.38C92.9,-29.83 104.59,-32.55 116.24,-35.26"/>
<polygon fill="#4a5568" stroke="#4a5568" stroke-width="1.2" points="115.56,-37.62 122.94,-36.82 116.67,-32.84 115.56,-37.62"/>
</g>
<!-- tick -->
<g id="node3" class="node">
<title>tick</title>
<path fill="#ebf8ff" stroke="#3182ce" d="M375.5,-70C375.5,-70 308.5,-70 308.5,-70 302.5,-70 296.5,-64 296.5,-58 296.5,-58 296.5,-46 296.5,-46 296.5,-40 302.5,-34 308.5,-34 308.5,-34 375.5,-34 375.5,-34 381.5,-34 387.5,-40 387.5,-46 387.5,-46 387.5,-58 387.5,-58 387.5,-64 381.5,-70 375.5,-70"/>
<text xml:space="preserve" text-anchor="middle" x="342" y="-47.55" font-family="Helvetica,sans-Serif" font-size="11.00">bt.tick(instance)</text>
</g>
<!-- write&#45;&gt;tick -->
<g id="edge2" class="edge">
<title>write&#45;&gt;tick</title>
<path fill="none" stroke="#4a5568" stroke-width="1.2" d="M253.74,-52C265.05,-52 276.71,-52 287.7,-52"/>
<polygon fill="#4a5568" stroke="#4a5568" stroke-width="1.2" points="287.52,-54.45 294.52,-52 287.52,-49.55 287.52,-54.45"/>
</g>
<!-- act -->
<g id="node4" class="node">
<title>act</title>
<path fill="#fffaf0" stroke="#dd6b20" d="M575.5,-70C575.5,-70 442.5,-70 442.5,-70 436.5,-70 430.5,-64 430.5,-58 430.5,-58 430.5,-46 430.5,-46 430.5,-40 436.5,-34 442.5,-34 442.5,-34 575.5,-34 575.5,-34 581.5,-34 587.5,-40 587.5,-46 587.5,-46 587.5,-58 587.5,-58 587.5,-64 581.5,-70 575.5,-70"/>
<text xml:space="preserve" text-anchor="middle" x="509" y="-47.55" font-family="Helvetica,sans-Serif" font-size="11.00">env.act(action or safe_action)</text>
</g>
<!-- tick&#45;&gt;act -->
<g id="edge3" class="edge">
<title>tick&#45;&gt;act</title>
<path fill="none" stroke="#4a5568" stroke-width="1.2" d="M387.65,-52C398.25,-52 409.91,-52 421.68,-52"/>
<polygon fill="#4a5568" stroke="#4a5568" stroke-width="1.2" points="421.43,-54.45 428.43,-52 421.43,-49.55 421.43,-54.45"/>
</g>
<!-- step -->
<g id="node5" class="node">
<title>step</title>
<path fill="#faf5ff" stroke="#805ad5" d="M716.25,-36C716.25,-36 642.5,-36 642.5,-36 636.5,-36 630.5,-30 630.5,-24 630.5,-24 630.5,-12 630.5,-12 630.5,-6 636.5,0 642.5,0 642.5,0 716.25,0 716.25,0 722.25,0 728.25,-6 728.25,-12 728.25,-12 728.25,-24 728.25,-24 728.25,-30 722.25,-36 716.25,-36"/>
<text xml:space="preserve" text-anchor="middle" x="679.38" y="-19.55" font-family="Helvetica,sans-Serif" font-size="11.00">env.step()</text>
<text xml:space="preserve" text-anchor="middle" x="679.38" y="-7.55" font-family="Helvetica,sans-Serif" font-size="11.00">(next control tick)</text>
</g>
<!-- act&#45;&gt;step -->
<g id="edge4" class="edge">
<title>act&#45;&gt;step</title>
<path fill="none" stroke="#4a5568" stroke-width="1.2" d="M587.78,-36.29C599.2,-33.99 610.78,-31.65 621.67,-29.45"/>
<polygon fill="#4a5568" stroke="#4a5568" stroke-width="1.2" points="622.09,-31.87 628.46,-28.08 621.12,-27.06 622.09,-31.87"/>
</g>
<!-- step&#45;&gt;observe -->
<g id="edge5" class="edge">
<title>step&#45;&gt;observe</title>
<path fill="none" stroke="#4a5568" stroke-width="1.2" d="M630.17,-18C512.12,-18 209.57,-18 90.85,-18"/>
<polygon fill="#4a5568" stroke="#4a5568" stroke-width="1.2" points="91.11,-15.55 84.11,-18 91.11,-20.45 91.11,-15.55"/>
</g>
</g>
</svg>
