<?xml version="1.0" encoding="UTF-8" standalone="no"?>
<!DOCTYPE svg PUBLIC "-//W3C//DTD SVG 1.1//EN"
 "http://www.w3.org/Graphics/SVG/1.1/DTD/svg11.dtd">
<!-- Generated by graphviz version 14.1.2 (20260124.0452)
 -->
<!-- Title: GettingOrientedArchitecture Pages: 1 -->
<svg width="1160pt" height="205pt"
 viewBox="0.00 0.00 1160.00 205.00" xmlns="http://www.w3.org/2000/svg" xmlns:xlink="http://www.w3.org/1999/xlink">
<g id="graph0" class="graph" transform="scale(1 1) rotate(0) translate(14.4 190.4)">
<title>GettingOrientedArchitecture</title>
<polygon fill="white" stroke="none" points="-14.4,14.4 -14.4,-190.4 1145.15,-190.4 1145.15,14.4 -14.4,14.4"/>
<g id="clust1" class="cluster">
<title>cluster_logic</title>
<path fill="white" stroke="#cbd5e0" d="M20,-8C20,-8 564.25,-8 564.25,-8 570.25,-8 576.25,-14 576.25,-20 576.25,-20 576.25,-156 576.25,-156 576.25,-162 570.25,-168 564.25,-168 564.25,-168 20,-168 20,-168 14,-168 8,-162 8,-156 8,-156 8,-20 8,-20 8,-14 14,-8 20,-8"/>
<text xml:space="preserve" text-anchor="middle" x="292.12" y="-150.7" font-family="Times,serif" font-size="14.00">muesli&#45;bt runtime</text>
</g>
<!-- bt -->
<g id="node1" class="node">
<title>bt</title>
<path fill="#e6fffa" stroke="#319795" d="M138.5,-116C138.5,-116 28,-116 28,-116 22,-116 16,-110 16,-104 16,-104 16,-92 16,-92 16,-86 22,-80 28,-80 28,-80 138.5,-80 138.5,-80 144.5,-80 150.5,-86 150.5,-92 150.5,-92 150.5,-104 150.5,-104 150.5,-110 144.5,-116 138.5,-116"/>
<text xml:space="preserve" text-anchor="middle" x="83.25" y="-93.55" font-family="Helvetica,sans-Serif" font-size="11.00">BT language + Lisp logic</text>
</g>
<!-- planner -->
<g id="node2" class="node">
<title>planner</title>
<path fill="#ebf8ff" stroke="#3182ce" d="M377.75,-52C377.75,-52 265.75,-52 265.75,-52 259.75,-52 253.75,-46 253.75,-40 253.75,-40 253.75,-28 253.75,-28 253.75,-22 259.75,-16 265.75,-16 265.75,-16 377.75,-16 377.75,-16 383.75,-16 389.75,-22 389.75,-28 389.75,-28 389.75,-40 389.75,-40 389.75,-46 383.75,-52 377.75,-52"/>
<text xml:space="preserve" text-anchor="middle" x="321.75" y="-29.55" font-family="Helvetica,sans-Serif" font-size="11.00">planner.plan / plan&#45;action</text>
</g>
<!-- bt&#45;&gt;planner -->
<g id="edge4" class="edge">
<title>bt&#45;&gt;planner</title>
<path fill="none" stroke="#4a5568" stroke-width="1.2" d="M150.76,-80C180.1,-72.06 214.75,-62.69 245.08,-54.48"/>
<polygon fill="#4a5568" stroke="#4a5568" stroke-width="1.2" points="245.64,-56.86 251.76,-52.67 244.36,-52.13 245.64,-56.86"/>
<text xml:space="preserve" text-anchor="middle" x="202.12" y="-73.48" font-family="Helvetica,sans-Serif" font-size="10.00">plan request</text>
</g>
<!-- bb -->
<g id="node3" class="node">
<title>bb</title>
<path fill="#fff5f5" stroke="#c53030" d="M556.25,-116C556.25,-116 511.75,-116 511.75,-116 505.75,-116 499.75,-110 499.75,-104 499.75,-104 499.75,-92 499.75,-92 499.75,-86 505.75,-80 511.75,-80 511.75,-80 556.25,-80 556.25,-80 562.25,-80 568.25,-86 568.25,-92 568.25,-92 568.25,-104 568.25,-104 568.25,-110 562.25,-116 556.25,-116"/>
<text xml:space="preserve" text-anchor="middle" x="534" y="-93.55" font-family="Helvetica,sans-Serif" font-size="11.00">blackboard</text>
</g>
<!-- bt&#45;&gt;bb -->
<g id="edge3" class="edge">
<title>bt&#45;&gt;bb</title>
<path fill="none" stroke="#4a5568" stroke-width="1.2" d="M150.72,-98.26C217.46,-98.51 323.23,-98.86 414.75,-99 441.42,-99.04 448.08,-99.23 474.75,-99 479.99,-98.95 485.5,-98.89 490.95,-98.81"/>
<polygon fill="#4a5568" stroke="#4a5568" stroke-width="1.2" points="490.65,-101.26 497.61,-98.7 490.57,-96.36 490.65,-101.26"/>
<text xml:space="preserve" text-anchor="middle" x="321.75" y="-100.7" font-family="Helvetica,sans-Serif" font-size="10.00">read/write</text>
</g>
<!-- planner&#45;&gt;bb -->
<g id="edge5" class="edge">
<title>planner&#45;&gt;bb</title>
<path fill="none" stroke="#4a5568" stroke-width="1.2" d="M383.28,-52.43C417.77,-62.92 460.11,-75.81 490.96,-85.2"/>
<polygon fill="#4a5568" stroke="#4a5568" stroke-width="1.2" points="490.19,-87.53 497.6,-87.22 491.62,-82.84 490.19,-87.53"/>
<text xml:space="preserve" text-anchor="middle" x="444.75" y="-80.84" font-family="Helvetica,sans-Serif" font-size="10.00">action + meta</text>
</g>
<!-- backend -->
<g id="node4" class="node">
<title>backend</title>
<path fill="#fffaf0" stroke="#dd6b20" d="M796.25,-116C796.25,-116 696.25,-116 696.25,-116 690.25,-116 684.25,-110 684.25,-104 684.25,-104 684.25,-92 684.25,-92 684.25,-86 690.25,-80 696.25,-80 696.25,-80 796.25,-80 796.25,-80 802.25,-80 808.25,-86 808.25,-92 808.25,-92 808.25,-104 808.25,-104 808.25,-110 802.25,-116 796.25,-116"/>
<text xml:space="preserve" text-anchor="middle" x="746.25" y="-99.55" font-family="Helvetica,sans-Serif" font-size="11.00">host (backend)</text>
<text xml:space="preserve" text-anchor="middle" x="746.25" y="-87.55" font-family="Helvetica,sans-Serif" font-size="11.00">(env.* implementation)</text>
</g>
<!-- bb&#45;&gt;backend -->
<g id="edge6" class="edge">
<title>bb&#45;&gt;backend</title>
<path fill="none" stroke="#4a5568" stroke-width="1.2" d="M568.31,-98C597.04,-98 639.48,-98 675.59,-98"/>
<polygon fill="#4a5568" stroke="#4a5568" stroke-width="1.2" points="675.33,-100.45 682.33,-98 675.33,-95.55 675.33,-100.45"/>
<text xml:space="preserve" text-anchor="middle" x="626.25" y="-99.75" font-family="Helvetica,sans-Serif" font-size="10.00">selected action</text>
</g>
<!-- backend&#45;&gt;bb -->
<g id="edge2" class="edge">
<title>backend&#45;&gt;bb</title>
<path fill="none" stroke="#4a5568" stroke-width="1.2" d="M696.78,-79.5C666.83,-70.5 627.66,-63.1 593.25,-70.75 587.54,-72.02 581.72,-73.91 576.09,-76.12"/>
<polygon fill="#4a5568" stroke="#4a5568" stroke-width="1.2" points="575.16,-73.85 569.67,-78.83 577.07,-78.36 575.16,-73.85"/>
<text xml:space="preserve" text-anchor="middle" x="626.25" y="-72.5" font-family="Helvetica,sans-Serif" font-size="10.00">env.observe</text>
</g>
<!-- platform -->
<g id="node5" class="node">
<title>platform</title>
<path fill="#faf5ff" stroke="#805ad5" d="M1118.75,-116C1118.75,-116 949,-116 949,-116 943,-116 937,-110 937,-104 937,-104 937,-92 937,-92 937,-86 943,-80 949,-80 949,-80 1118.75,-80 1118.75,-80 1124.75,-80 1130.75,-86 1130.75,-92 1130.75,-92 1130.75,-104 1130.75,-104 1130.75,-110 1124.75,-116 1118.75,-116"/>
<text xml:space="preserve" text-anchor="middle" x="1033.88" y="-99.55" font-family="Helvetica,sans-Serif" font-size="11.00">robot / simulator</text>
<text xml:space="preserve" text-anchor="middle" x="1033.88" y="-87.55" font-family="Helvetica,sans-Serif" font-size="11.00">(Webots, PyBullet, ROS2, hardware)</text>
</g>
<!-- backend&#45;&gt;platform -->
<g id="edge7" class="edge">
<title>backend&#45;&gt;platform</title>
<path fill="none" stroke="#4a5568" stroke-width="1.2" d="M808.52,-98C843.27,-98 887.69,-98 927.83,-98"/>
<polygon fill="#4a5568" stroke="#4a5568" stroke-width="1.2" points="927.77,-100.45 934.77,-98 927.77,-95.55 927.77,-100.45"/>
<text xml:space="preserve" text-anchor="middle" x="872.62" y="-99.75" font-family="Helvetica,sans-Serif" font-size="10.00">env.act + env.step</text>
</g>
<!-- platform&#45;&gt;backend -->
<g id="edge1" class="edge">
<title>platform&#45;&gt;backend</title>
<path fill="none" stroke="#4a5568" stroke-width="1.2" d="M967.61,-79.54C928.57,-70.88 878.02,-63.83 833.25,-70.75 824.01,-72.18 814.4,-74.42 805.09,-77.03"/>
<polygon fill="#4a5568" stroke="#4a5568" stroke-width="1.2" points="804.42,-74.67 798.4,-78.99 805.8,-79.37 804.42,-74.67"/>
<text xml:space="preserve" text-anchor="middle" x="872.62" y="-72.5" font-family="Helvetica,sans-Serif" font-size="10.00">sensors/state</text>
</g>
</g>
</svg>
