<?xml version="1.0" encoding="UTF-8" standalone="no"?>
<!DOCTYPE svg PUBLIC "-//W3C//DTD SVG 1.1//EN"
 "http://www.w3.org/Graphics/SVG/1.1/DTD/svg11.dtd">
<!-- Generated by graphviz version 14.1.2 (20260124.0452)
 -->
<!-- Title: IntegrationFlow Pages: 1 -->
<svg width="834pt" height="120pt"
 viewBox="0.00 0.00 834.00 120.00" xmlns="http://www.w3.org/2000/svg" xmlns:xlink="http://www.w3.org/1999/xlink">
<g id="graph0" class="graph" transform="scale(1 1) rotate(0) translate(14.4 105.4)">
<title>IntegrationFlow</title>
<polygon fill="white" stroke="none" points="-14.4,14.4 -14.4,-105.4 819.4,-105.4 819.4,14.4 -14.4,14.4"/>
<!-- sim -->
<g id="node1" class="node">
<title>sim</title>
<path fill="#faf5ff" stroke="#805ad5" d="M81.25,-39C81.25,-39 12,-39 12,-39 6,-39 0,-33 0,-27 0,-27 0,-15 0,-15 0,-9 6,-3 12,-3 12,-3 81.25,-3 81.25,-3 87.25,-3 93.25,-9 93.25,-15 93.25,-15 93.25,-27 93.25,-27 93.25,-33 87.25,-39 81.25,-39"/>
<text xml:space="preserve" text-anchor="middle" x="46.62" y="-16.55" font-family="Helvetica,sans-Serif" font-size="11.00">robot / simulator</text>
</g>
<!-- obs -->
<g id="node2" class="node">
<title>obs</title>
<path fill="#e6fffa" stroke="#319795" d="M229.25,-91C229.25,-91 150.25,-91 150.25,-91 144.25,-91 138.25,-85 138.25,-79 138.25,-79 138.25,-67 138.25,-67 138.25,-61 144.25,-55 150.25,-55 150.25,-55 229.25,-55 229.25,-55 235.25,-55 241.25,-61 241.25,-67 241.25,-67 241.25,-79 241.25,-79 241.25,-85 235.25,-91 229.25,-91"/>
<text xml:space="preserve" text-anchor="middle" x="189.75" y="-74.55" font-family="Helvetica,sans-Serif" font-size="11.00">env.observe</text>
<text xml:space="preserve" text-anchor="middle" x="189.75" y="-62.55" font-family="Helvetica,sans-Serif" font-size="11.00">(observation map)</text>
</g>
<!-- sim&#45;&gt;obs -->
<g id="edge1" class="edge">
<title>sim&#45;&gt;obs</title>
<path fill="none" stroke="#4a5568" stroke-width="1.2" d="M93.44,-37.88C105.33,-42.26 118.28,-47.04 130.71,-51.61"/>
<polygon fill="#4a5568" stroke="#4a5568" stroke-width="1.2" points="129.65,-53.84 137.07,-53.96 131.35,-49.24 129.65,-53.84"/>
</g>
<!-- bb -->
<g id="node3" class="node">
<title>bb</title>
<path fill="#fff5f5" stroke="#c53030" d="M342.75,-91C342.75,-91 298.25,-91 298.25,-91 292.25,-91 286.25,-85 286.25,-79 286.25,-79 286.25,-67 286.25,-67 286.25,-61 292.25,-55 298.25,-55 298.25,-55 342.75,-55 342.75,-55 348.75,-55 354.75,-61 354.75,-67 354.75,-67 354.75,-79 354.75,-79 354.75,-85 348.75,-91 342.75,-91"/>
<text xml:space="preserve" text-anchor="middle" x="320.5" y="-68.55" font-family="Helvetica,sans-Serif" font-size="11.00">blackboard</text>
</g>
<!-- obs&#45;&gt;bb -->
<g id="edge2" class="edge">
<title>obs&#45;&gt;bb</title>
<path fill="none" stroke="#4a5568" stroke-width="1.2" d="M241.64,-73C253.51,-73 266.03,-73 277.47,-73"/>
<polygon fill="#4a5568" stroke="#4a5568" stroke-width="1.2" points="277.16,-75.45 284.16,-73 277.16,-70.55 277.16,-75.45"/>
</g>
<!-- bt -->
<g id="node4" class="node">
<title>bt</title>
<path fill="#ebf8ff" stroke="#3182ce" d="M483.5,-91C483.5,-91 453.5,-91 453.5,-91 447.5,-91 441.5,-85 441.5,-79 441.5,-79 441.5,-67 441.5,-67 441.5,-61 447.5,-55 453.5,-55 453.5,-55 483.5,-55 483.5,-55 489.5,-55 495.5,-61 495.5,-67 495.5,-67 495.5,-79 495.5,-79 495.5,-85 489.5,-91 483.5,-91"/>
<text xml:space="preserve" text-anchor="middle" x="468.5" y="-68.55" font-family="Helvetica,sans-Serif" font-size="11.00">BT tick</text>
</g>
<!-- bb&#45;&gt;bt -->
<g id="edge3" class="edge">
<title>bb&#45;&gt;bt</title>
<path fill="none" stroke="#4a5568" stroke-width="1.2" d="M355.07,-76.53C362.22,-77.14 369.73,-77.68 376.75,-78 395.73,-78.86 400.53,-78.99 419.5,-78 423.67,-77.78 428.04,-77.46 432.37,-77.08"/>
<polygon fill="#4a5568" stroke="#4a5568" stroke-width="1.2" points="432.59,-79.52 439.32,-76.42 432.12,-74.65 432.59,-79.52"/>
</g>
<!-- bt&#45;&gt;bb -->
<g id="edge8" class="edge">
<title>bt&#45;&gt;bb</title>
<path fill="none" stroke="#718096" stroke-width="1.2" stroke-dasharray="5,2" d="M441.2,-67.65C434.18,-66.45 426.58,-65.35 419.5,-64.75 400.57,-63.13 395.7,-63.34 376.75,-64.75 372.45,-65.07 367.97,-65.53 363.51,-66.06"/>
<polygon fill="#718096" stroke="#718096" stroke-width="1.2" points="363.43,-63.6 356.81,-66.95 364.07,-68.46 363.43,-63.6"/>
<text xml:space="preserve" text-anchor="middle" x="398.12" y="-66.5" font-family="Helvetica,sans-Serif" font-size="10.00">read/write</text>
</g>
<!-- action -->
<g id="node5" class="node">
<title>action</title>
<path fill="#fffaf0" stroke="#dd6b20" d="M592.5,-91C592.5,-91 552.5,-91 552.5,-91 546.5,-91 540.5,-85 540.5,-79 540.5,-79 540.5,-67 540.5,-67 540.5,-61 546.5,-55 552.5,-55 552.5,-55 592.5,-55 592.5,-55 598.5,-55 604.5,-61 604.5,-67 604.5,-67 604.5,-79 604.5,-79 604.5,-85 598.5,-91 592.5,-91"/>
<text xml:space="preserve" text-anchor="middle" x="572.5" y="-68.55" font-family="Helvetica,sans-Serif" font-size="11.00">action key</text>
</g>
<!-- bt&#45;&gt;action -->
<g id="edge4" class="edge">
<title>bt&#45;&gt;action</title>
<path fill="none" stroke="#4a5568" stroke-width="1.2" d="M495.77,-73C506.69,-73 519.61,-73 531.66,-73"/>
<polygon fill="#4a5568" stroke="#4a5568" stroke-width="1.2" points="531.42,-75.45 538.42,-73 531.42,-70.55 531.42,-75.45"/>
</g>
<!-- envact -->
<g id="node6" class="node">
<title>envact</title>
<path fill="#fffaf0" stroke="#dd6b20" d="M691.5,-91C691.5,-91 661.5,-91 661.5,-91 655.5,-91 649.5,-85 649.5,-79 649.5,-79 649.5,-67 649.5,-67 649.5,-61 655.5,-55 661.5,-55 661.5,-55 691.5,-55 691.5,-55 697.5,-55 703.5,-61 703.5,-67 703.5,-67 703.5,-79 703.5,-79 703.5,-85 697.5,-91 691.5,-91"/>
<text xml:space="preserve" text-anchor="middle" x="676.5" y="-68.55" font-family="Helvetica,sans-Serif" font-size="11.00">env.act</text>
</g>
<!-- action&#45;&gt;envact -->
<g id="edge5" class="edge">
<title>action&#45;&gt;envact</title>
<path fill="none" stroke="#4a5568" stroke-width="1.2" d="M604.94,-73C616.22,-73 629.02,-73 640.58,-73"/>
<polygon fill="#4a5568" stroke="#4a5568" stroke-width="1.2" points="640.33,-75.45 647.33,-73 640.33,-70.55 640.33,-75.45"/>
</g>
<!-- step -->
<g id="node7" class="node">
<title>step</title>
<path fill="#faf5ff" stroke="#805ad5" d="M793,-39C793,-39 760.5,-39 760.5,-39 754.5,-39 748.5,-33 748.5,-27 748.5,-27 748.5,-15 748.5,-15 748.5,-9 754.5,-3 760.5,-3 760.5,-3 793,-3 793,-3 799,-3 805,-9 805,-15 805,-15 805,-27 805,-27 805,-33 799,-39 793,-39"/>
<text xml:space="preserve" text-anchor="middle" x="776.75" y="-16.55" font-family="Helvetica,sans-Serif" font-size="11.00">env.step</text>
</g>
<!-- envact&#45;&gt;step -->
<g id="edge6" class="edge">
<title>envact&#45;&gt;step</title>
<path fill="none" stroke="#4a5568" stroke-width="1.2" d="M703.83,-59.06C715.11,-53.09 728.46,-46.03 740.57,-39.62"/>
<polygon fill="#4a5568" stroke="#4a5568" stroke-width="1.2" points="741.67,-41.81 746.71,-36.37 739.38,-37.48 741.67,-41.81"/>
</g>
<!-- step&#45;&gt;sim -->
<g id="edge7" class="edge">
<title>step&#45;&gt;sim</title>
<path fill="none" stroke="#4a5568" stroke-width="1.2" d="M748.13,-11.85C728.63,-6.19 701.75,0 677.5,0 188.75,0 188.75,0 188.75,0 159.93,0 128.16,-4.34 102.07,-9.07"/>
<polygon fill="#4a5568" stroke="#4a5568" stroke-width="1.2" points="101.66,-6.65 95.23,-10.35 102.57,-11.47 101.66,-6.65"/>
</g>
</g>
</svg>
