<?xml version="1.0" encoding="UTF-8" standalone="no"?>
<!DOCTYPE svg PUBLIC "-//W3C//DTD SVG 1.1//EN"
 "http://www.w3.org/Graphics/SVG/1.1/DTD/svg11.dtd">
<!-- Generated by graphviz version 14.1.2 (20260124.0452)
 -->
<!-- Title: PlanningLoop Pages: 1 -->
<svg width="733pt" height="120pt"
 viewBox="0.00 0.00 733.00 120.00" xmlns="http://www.w3.org/2000/svg" xmlns:xlink="http://www.w3.org/1999/xlink">
<g id="graph0" class="graph" transform="scale(1 1) rotate(0) translate(14.4 105.4)">
<title>PlanningLoop</title>
<polygon fill="white" stroke="none" points="-14.4,14.4 -14.4,-105.4 718.4,-105.4 718.4,14.4 -14.4,14.4"/>
<!-- observe -->
<g id="node1" class="node">
<title>observe</title>
<path fill="#e6fffa" stroke="#319795" d="M62.5,-54C62.5,-54 12,-54 12,-54 6,-54 0,-48 0,-42 0,-42 0,-30 0,-30 0,-24 6,-18 12,-18 12,-18 62.5,-18 62.5,-18 68.5,-18 74.5,-24 74.5,-30 74.5,-30 74.5,-42 74.5,-42 74.5,-48 68.5,-54 62.5,-54"/>
<text xml:space="preserve" text-anchor="middle" x="37.25" y="-31.55" font-family="Helvetica,sans-Serif" font-size="11.00">env.observe</text>
</g>
<!-- tick -->
<g id="node2" class="node">
<title>tick</title>
<path fill="#ebf8ff" stroke="#3182ce" d="M166.5,-91C166.5,-91 136.5,-91 136.5,-91 130.5,-91 124.5,-85 124.5,-79 124.5,-79 124.5,-67 124.5,-67 124.5,-61 130.5,-55 136.5,-55 136.5,-55 166.5,-55 166.5,-55 172.5,-55 178.5,-61 178.5,-67 178.5,-67 178.5,-79 178.5,-79 178.5,-85 172.5,-91 166.5,-91"/>
<text xml:space="preserve" text-anchor="middle" x="151.5" y="-68.55" font-family="Helvetica,sans-Serif" font-size="11.00">BT tick</text>
</g>
<!-- observe&#45;&gt;tick -->
<g id="edge1" class="edge">
<title>observe&#45;&gt;tick</title>
<path fill="none" stroke="#4a5568" stroke-width="1.2" d="M74.69,-48.01C87.93,-52.37 102.83,-57.29 115.9,-61.6"/>
<polygon fill="#4a5568" stroke="#4a5568" stroke-width="1.2" points="115.05,-63.89 122.46,-63.76 116.58,-59.24 115.05,-63.89"/>
</g>
<!-- plan -->
<g id="node3" class="node">
<title>plan</title>
<path fill="#ebf8ff" stroke="#3182ce" d="M304.5,-91C304.5,-91 240.5,-91 240.5,-91 234.5,-91 228.5,-85 228.5,-79 228.5,-79 228.5,-67 228.5,-67 228.5,-61 234.5,-55 240.5,-55 240.5,-55 304.5,-55 304.5,-55 310.5,-55 316.5,-61 316.5,-67 316.5,-67 316.5,-79 316.5,-79 316.5,-85 310.5,-91 304.5,-91"/>
<text xml:space="preserve" text-anchor="middle" x="272.5" y="-74.55" font-family="Helvetica,sans-Serif" font-size="11.00">plan&#45;action</text>
<text xml:space="preserve" text-anchor="middle" x="272.5" y="-62.55" font-family="Helvetica,sans-Serif" font-size="11.00">&#45;&gt; planner.plan</text>
</g>
<!-- tick&#45;&gt;plan -->
<g id="edge2" class="edge">
<title>tick&#45;&gt;plan</title>
<path fill="none" stroke="#4a5568" stroke-width="1.2" d="M178.91,-73C190.93,-73 205.6,-73 219.68,-73"/>
<polygon fill="#4a5568" stroke="#4a5568" stroke-width="1.2" points="219.52,-75.45 226.52,-73 219.52,-70.55 219.52,-75.45"/>
</g>
<!-- bb -->
<g id="node4" class="node">
<title>bb</title>
<path fill="#fff5f5" stroke="#c53030" d="M481.5,-91C481.5,-91 378.5,-91 378.5,-91 372.5,-91 366.5,-85 366.5,-79 366.5,-79 366.5,-67 366.5,-67 366.5,-61 372.5,-55 378.5,-55 378.5,-55 481.5,-55 481.5,-55 487.5,-55 493.5,-61 493.5,-67 493.5,-67 493.5,-79 493.5,-79 493.5,-85 487.5,-91 481.5,-91"/>
<text xml:space="preserve" text-anchor="middle" x="430" y="-68.55" font-family="Helvetica,sans-Serif" font-size="11.00">blackboard action/meta</text>
</g>
<!-- plan&#45;&gt;bb -->
<g id="edge3" class="edge">
<title>plan&#45;&gt;bb</title>
<path fill="none" stroke="#4a5568" stroke-width="1.2" d="M316.82,-73C329.47,-73 343.64,-73 357.55,-73"/>
<polygon fill="#4a5568" stroke="#4a5568" stroke-width="1.2" points="357.34,-75.45 364.34,-73 357.34,-70.55 357.34,-75.45"/>
</g>
<!-- act -->
<g id="node5" class="node">
<title>act</title>
<path fill="#fffaf0" stroke="#dd6b20" d="M585.5,-91C585.5,-91 555.5,-91 555.5,-91 549.5,-91 543.5,-85 543.5,-79 543.5,-79 543.5,-67 543.5,-67 543.5,-61 549.5,-55 555.5,-55 555.5,-55 585.5,-55 585.5,-55 591.5,-55 597.5,-61 597.5,-67 597.5,-67 597.5,-79 597.5,-79 597.5,-85 591.5,-91 585.5,-91"/>
<text xml:space="preserve" text-anchor="middle" x="570.5" y="-68.55" font-family="Helvetica,sans-Serif" font-size="11.00">env.act</text>
</g>
<!-- bb&#45;&gt;act -->
<g id="edge4" class="edge">
<title>bb&#45;&gt;act</title>
<path fill="none" stroke="#4a5568" stroke-width="1.2" d="M493.77,-73C507.82,-73 522.23,-73 534.66,-73"/>
<polygon fill="#4a5568" stroke="#4a5568" stroke-width="1.2" points="534.51,-75.45 541.51,-73 534.51,-70.55 534.51,-75.45"/>
</g>
<!-- step -->
<g id="node6" class="node">
<title>step</title>
<path fill="#faf5ff" stroke="#805ad5" d="M692,-54C692,-54 659.5,-54 659.5,-54 653.5,-54 647.5,-48 647.5,-42 647.5,-42 647.5,-30 647.5,-30 647.5,-24 653.5,-18 659.5,-18 659.5,-18 692,-18 692,-18 698,-18 704,-24 704,-30 704,-30 704,-42 704,-42 704,-48 698,-54 692,-54"/>
<text xml:space="preserve" text-anchor="middle" x="675.75" y="-31.55" font-family="Helvetica,sans-Serif" font-size="11.00">env.step</text>
</g>
<!-- act&#45;&gt;step -->
<g id="edge5" class="edge">
<title>act&#45;&gt;step</title>
<path fill="none" stroke="#4a5568" stroke-width="1.2" d="M597.82,-63.57C610.29,-59.1 625.37,-53.69 638.87,-48.86"/>
<polygon fill="#4a5568" stroke="#4a5568" stroke-width="1.2" points="639.56,-51.21 645.32,-46.55 637.91,-46.6 639.56,-51.21"/>
</g>
<!-- step&#45;&gt;observe -->
<g id="edge6" class="edge">
<title>step&#45;&gt;observe</title>
<path fill="none" stroke="#4a5568" stroke-width="1.2" d="M647.16,-29.23C602.19,-18.8 510.14,0 431,0 271.5,0 271.5,0 271.5,0 205.35,0 129.86,-14.32 83.13,-24.9"/>
<polygon fill="#4a5568" stroke="#4a5568" stroke-width="1.2" points="82.79,-22.46 76.51,-26.42 83.89,-27.24 82.79,-22.46"/>
</g>
</g>
</svg>
