<?xml version="1.0" encoding="UTF-8" standalone="no"?>
<!DOCTYPE svg PUBLIC "-//W3C//DTD SVG 1.1//EN"
 "http://www.w3.org/Graphics/SVG/1.1/DTD/svg11.dtd">
<!-- Generated by graphviz version 14.1.2 (20260124.0452)
 -->
<!-- Title: reactive_preemption_flow Pages: 1 -->
<svg width="293pt" height="528pt"
 viewBox="0.00 0.00 293.00 528.00" xmlns="http://www.w3.org/2000/svg" xmlns:xlink="http://www.w3.org/1999/xlink">
<g id="graph0" class="graph" transform="scale(1 1) rotate(0) translate(4 524.25)">
<title>reactive_preemption_flow</title>
<polygon fill="white" stroke="none" points="-4,4 -4,-524.25 289.38,-524.25 289.38,4 -4,4"/>
<text xml:space="preserve" text-anchor="middle" x="142.69" y="-505.8" font-family="Helvetica,sans-Serif" font-size="11.00">Reactive Composite Tick + Preemption</text>
<!-- tick -->
<g id="node1" class="node">
<title>tick</title>
<path fill="#fff7ed" stroke="#9a3412" d="M149.88,-500.25C149.88,-500.25 119.88,-500.25 119.88,-500.25 113.88,-500.25 107.88,-494.25 107.88,-488.25 107.88,-488.25 107.88,-476.25 107.88,-476.25 107.88,-470.25 113.88,-464.25 119.88,-464.25 119.88,-464.25 149.88,-464.25 149.88,-464.25 155.88,-464.25 161.88,-470.25 161.88,-476.25 161.88,-476.25 161.88,-488.25 161.88,-488.25 161.88,-494.25 155.88,-500.25 149.88,-500.25"/>
<text xml:space="preserve" text-anchor="middle" x="134.88" y="-478.38" font-family="Helvetica,sans-Serif" font-size="10.00">Tick N</text>
</g>
<!-- eval -->
<g id="node2" class="node">
<title>eval</title>
<path fill="#fff7ed" stroke="#9a3412" d="M177,-427.25C177,-427.25 92.75,-427.25 92.75,-427.25 86.75,-427.25 80.75,-421.25 80.75,-415.25 80.75,-415.25 80.75,-403.25 80.75,-403.25 80.75,-397.25 86.75,-391.25 92.75,-391.25 92.75,-391.25 177,-391.25 177,-391.25 183,-391.25 189,-397.25 189,-403.25 189,-403.25 189,-415.25 189,-415.25 189,-421.25 183,-427.25 177,-427.25"/>
<text xml:space="preserve" text-anchor="middle" x="134.88" y="-405.38" font-family="Helvetica,sans-Serif" font-size="10.00">Evaluate from child 0</text>
</g>
<!-- tick&#45;&gt;eval -->
<g id="edge1" class="edge">
<title>tick&#45;&gt;eval</title>
<path fill="none" stroke="#9a3412" stroke-width="1.2" d="M134.88,-464.06C134.88,-456.56 134.88,-447.56 134.88,-439.08"/>
<polygon fill="#9a3412" stroke="#9a3412" stroke-width="1.2" points="138.38,-439.1 134.88,-429.1 131.38,-439.1 138.38,-439.1"/>
</g>
<!-- running -->
<g id="node3" class="node">
<title>running</title>
<path fill="#fff7ed" stroke="#9a3412" d="M127.38,-354.25C127.38,-354.25 12.38,-354.25 12.38,-354.25 6.37,-354.25 0.38,-348.25 0.38,-342.25 0.38,-342.25 0.38,-330.25 0.38,-330.25 0.38,-324.25 6.38,-318.25 12.38,-318.25 12.38,-318.25 127.38,-318.25 127.38,-318.25 133.38,-318.25 139.38,-324.25 139.38,-330.25 139.38,-330.25 139.38,-342.25 139.38,-342.25 139.38,-348.25 133.38,-354.25 127.38,-354.25"/>
<text xml:space="preserve" text-anchor="middle" x="69.88" y="-332.38" font-family="Helvetica,sans-Serif" font-size="10.00">Current child returns running</text>
</g>
<!-- eval&#45;&gt;running -->
<g id="edge2" class="edge">
<title>eval&#45;&gt;running</title>
<path fill="none" stroke="#9a3412" stroke-width="1.2" d="M119.14,-391.06C111.4,-382.6 101.9,-372.23 93.32,-362.86"/>
<polygon fill="#9a3412" stroke="#9a3412" stroke-width="1.2" points="96.03,-360.63 86.69,-355.62 90.86,-365.36 96.03,-360.63"/>
</g>
<!-- fail -->
<g id="node8" class="node">
<title>fail</title>
<path fill="#fff7ed" stroke="#9a3412" d="M233.88,-354.25C233.88,-354.25 169.88,-354.25 169.88,-354.25 163.88,-354.25 157.88,-348.25 157.88,-342.25 157.88,-342.25 157.88,-330.25 157.88,-330.25 157.88,-324.25 163.88,-318.25 169.88,-318.25 169.88,-318.25 233.88,-318.25 233.88,-318.25 239.88,-318.25 245.88,-324.25 245.88,-330.25 245.88,-330.25 245.88,-342.25 245.88,-342.25 245.88,-348.25 239.88,-354.25 233.88,-354.25"/>
<text xml:space="preserve" text-anchor="middle" x="201.88" y="-332.38" font-family="Helvetica,sans-Serif" font-size="10.00">Earlier child fails</text>
</g>
<!-- eval&#45;&gt;fail -->
<g id="edge8" class="edge">
<title>eval&#45;&gt;fail</title>
<path fill="none" stroke="#9a3412" stroke-width="1.2" d="M151.09,-391.06C159.08,-382.6 168.86,-372.23 177.71,-362.86"/>
<polygon fill="#9a3412" stroke="#9a3412" stroke-width="1.2" points="180.24,-365.27 184.56,-355.6 175.15,-360.47 180.24,-365.27"/>
</g>
<!-- prior -->
<g id="node4" class="node">
<title>prior</title>
<path fill="#fff7ed" stroke="#9a3412" d="M127.75,-272.5C127.75,-272.5 12,-272.5 12,-272.5 6,-272.5 0,-266.5 0,-260.5 0,-260.5 0,-248.5 0,-248.5 0,-242.5 6,-236.5 12,-236.5 12,-236.5 127.75,-236.5 127.75,-236.5 133.75,-236.5 139.75,-242.5 139.75,-248.5 139.75,-248.5 139.75,-260.5 139.75,-260.5 139.75,-266.5 133.75,-272.5 127.75,-272.5"/>
<text xml:space="preserve" text-anchor="middle" x="69.88" y="-256.25" font-family="Helvetica,sans-Serif" font-size="10.00">Was a different child running</text>
<text xml:space="preserve" text-anchor="middle" x="69.88" y="-245" font-family="Helvetica,sans-Serif" font-size="10.00">last tick?</text>
</g>
<!-- running&#45;&gt;prior -->
<g id="edge3" class="edge">
<title>running&#45;&gt;prior</title>
<path fill="none" stroke="#9a3412" stroke-width="1.2" d="M69.88,-317.95C69.88,-308.12 69.88,-295.57 69.88,-284.31"/>
<polygon fill="#9a3412" stroke="#9a3412" stroke-width="1.2" points="73.38,-284.59 69.88,-274.59 66.38,-284.59 73.38,-284.59"/>
</g>
<!-- preempt -->
<g id="node5" class="node">
<title>preempt</title>
<path fill="#fff7ed" stroke="#9a3412" d="M244.5,-190.75C244.5,-190.75 139.25,-190.75 139.25,-190.75 133.25,-190.75 127.25,-184.75 127.25,-178.75 127.25,-178.75 127.25,-166.75 127.25,-166.75 127.25,-160.75 133.25,-154.75 139.25,-154.75 139.25,-154.75 244.5,-154.75 244.5,-154.75 250.5,-154.75 256.5,-160.75 256.5,-166.75 256.5,-166.75 256.5,-178.75 256.5,-178.75 256.5,-184.75 250.5,-190.75 244.5,-190.75"/>
<text xml:space="preserve" text-anchor="middle" x="191.88" y="-174.5" font-family="Helvetica,sans-Serif" font-size="10.00">Emit node_preempt</text>
<text xml:space="preserve" text-anchor="middle" x="191.88" y="-163.25" font-family="Helvetica,sans-Serif" font-size="10.00">call halt_subtree(old child)</text>
</g>
<!-- prior&#45;&gt;preempt -->
<g id="edge4" class="edge">
<title>prior&#45;&gt;preempt</title>
<path fill="none" stroke="#9a3412" stroke-width="1.2" d="M96.35,-236.2C113.69,-224.86 136.59,-209.89 155.62,-197.45"/>
<polygon fill="#9a3412" stroke="#9a3412" stroke-width="1.2" points="157.48,-200.42 163.93,-192.01 153.65,-194.56 157.48,-200.42"/>
<text xml:space="preserve" text-anchor="middle" x="145.3" y="-209.95" font-family="Helvetica,sans-Serif" font-size="9.00">yes</text>
</g>
<!-- ret_running -->
<g id="node7" class="node">
<title>ret_running</title>
<path fill="#fff7ed" stroke="#9a3412" d="M109.75,-36C109.75,-36 54,-36 54,-36 48,-36 42,-30 42,-24 42,-24 42,-12 42,-12 42,-6 48,0 54,0 54,0 109.75,0 109.75,0 115.75,0 121.75,-6 121.75,-12 121.75,-12 121.75,-24 121.75,-24 121.75,-30 115.75,-36 109.75,-36"/>
<text xml:space="preserve" text-anchor="middle" x="81.88" y="-14.12" font-family="Helvetica,sans-Serif" font-size="10.00">Return running</text>
</g>
<!-- prior&#45;&gt;ret_running -->
<g id="edge7" class="edge">
<title>prior&#45;&gt;ret_running</title>
<path fill="none" stroke="#9a3412" stroke-width="1.2" d="M70.76,-236.26C72.8,-196.36 77.87,-97.35 80.39,-47.96"/>
<polygon fill="#9a3412" stroke="#9a3412" stroke-width="1.2" points="83.88,-48.25 80.9,-38.08 76.89,-47.89 83.88,-48.25"/>
<text xml:space="preserve" text-anchor="middle" x="81.54" y="-128.2" font-family="Helvetica,sans-Serif" font-size="9.00">no</text>
</g>
<!-- halt -->
<g id="node6" class="node">
<title>halt</title>
<path fill="#fff7ed" stroke="#9a3412" d="M273.38,-109C273.38,-109 110.38,-109 110.38,-109 104.38,-109 98.38,-103 98.38,-97 98.38,-97 98.38,-85 98.38,-85 98.38,-79 104.38,-73 110.38,-73 110.38,-73 273.38,-73 273.38,-73 279.38,-73 285.38,-79 285.38,-85 285.38,-85 285.38,-97 285.38,-97 285.38,-103 279.38,-109 273.38,-109"/>
<text xml:space="preserve" text-anchor="middle" x="191.88" y="-92.75" font-family="Helvetica,sans-Serif" font-size="10.00">Emit node_halt</text>
<text xml:space="preserve" text-anchor="middle" x="191.88" y="-81.5" font-family="Helvetica,sans-Serif" font-size="10.00">cancel scheduler job / call halt callback</text>
</g>
<!-- preempt&#45;&gt;halt -->
<g id="edge5" class="edge">
<title>preempt&#45;&gt;halt</title>
<path fill="none" stroke="#9a3412" stroke-width="1.2" d="M191.88,-154.45C191.88,-144.62 191.88,-132.07 191.88,-120.81"/>
<polygon fill="#9a3412" stroke="#9a3412" stroke-width="1.2" points="195.38,-121.09 191.88,-111.09 188.38,-121.09 195.38,-121.09"/>
</g>
<!-- halt&#45;&gt;ret_running -->
<g id="edge6" class="edge">
<title>halt&#45;&gt;ret_running</title>
<path fill="none" stroke="#9a3412" stroke-width="1.2" d="M164.97,-72.63C150.98,-63.61 133.69,-52.44 118.5,-42.64"/>
<polygon fill="#9a3412" stroke="#9a3412" stroke-width="1.2" points="120.71,-39.9 110.41,-37.42 116.92,-45.78 120.71,-39.9"/>
</g>
<!-- fail&#45;&gt;preempt -->
<g id="edge9" class="edge">
<title>fail&#45;&gt;preempt</title>
<path fill="none" stroke="#9a3412" stroke-width="1.2" d="M246.35,-327.76C268.66,-321.49 289.65,-310.26 282.88,-290.5 270.51,-254.45 241.92,-220.98 220.07,-199.21"/>
<polygon fill="#9a3412" stroke="#9a3412" stroke-width="1.2" points="222.7,-196.88 213.08,-192.44 217.83,-201.91 222.7,-196.88"/>
</g>
<!-- ret_fail -->
<g id="node9" class="node">
<title>ret_fail</title>
<path fill="#fff7ed" stroke="#9a3412" d="M220.12,-272.5C220.12,-272.5 169.62,-272.5 169.62,-272.5 163.62,-272.5 157.62,-266.5 157.62,-260.5 157.62,-260.5 157.62,-248.5 157.62,-248.5 157.62,-242.5 163.62,-236.5 169.62,-236.5 169.62,-236.5 220.12,-236.5 220.12,-236.5 226.12,-236.5 232.12,-242.5 232.12,-248.5 232.12,-248.5 232.12,-260.5 232.12,-260.5 232.12,-266.5 226.12,-272.5 220.12,-272.5"/>
<text xml:space="preserve" text-anchor="middle" x="194.88" y="-250.62" font-family="Helvetica,sans-Serif" font-size="10.00">Return failure</text>
</g>
<!-- fail&#45;&gt;ret_fail -->
<g id="edge10" class="edge">
<title>fail&#45;&gt;ret_fail</title>
<path fill="none" stroke="#9a3412" stroke-width="1.2" d="M198.38,-317.87C197.39,-312.27 196.43,-306.02 195.88,-300.25 195.39,-295.2 195.09,-289.82 194.9,-284.6"/>
<polygon fill="#9a3412" stroke="#9a3412" stroke-width="1.2" points="198.41,-284.71 194.71,-274.78 191.41,-284.85 198.41,-284.71"/>
<text xml:space="preserve" text-anchor="middle" x="239.38" y="-291.7" font-family="Helvetica,sans-Serif" font-size="9.00">no prior running child</text>
</g>
</g>
</svg>
