<svg xmlns="http://www.w3.org/2000/svg" viewBox="0 0 960 420" role="img" aria-labelledby="title desc">
  <title id="title">muesli-bt architecture at a glance</title>
  <desc id="desc">Lisp Behaviour Tree runtime connects to planner and VLA jobs, host backends, canonical event logs, and replay tools.</desc>
  <defs>
    <style>
      .bg { fill: #f8fafc; }
      .box { fill: #ffffff; stroke: #334155; stroke-width: 2; rx: 8; }
      .core { fill: #e0f2fe; stroke: #0369a1; }
      .host { fill: #ecfccb; stroke: #4d7c0f; }
      .evidence { fill: #fef3c7; stroke: #b45309; }
      .text { font-family: Inter, ui-sans-serif, system-ui, -apple-system, BlinkMacSystemFont, "Segoe UI", sans-serif; fill: #0f172a; font-size: 18px; }
      .small { font-size: 14px; fill: #334155; }
      .arrow { stroke: #475569; stroke-width: 2.4; fill: none; marker-end: url(#arrow); }
      .bidir { stroke: #475569; stroke-width: 2.4; fill: none; marker-start: url(#arrow); marker-end: url(#arrow); }
      .label { font-size: 13px; fill: #475569; }
      .legend { font-size: 12px; fill: #475569; }
    </style>
    <marker id="arrow" viewBox="0 0 10 10" refX="9" refY="5" markerWidth="8" markerHeight="8" orient="auto-start-reverse">
      <path d="M 0 0 L 10 5 L 0 10 z" fill="#475569"/>
    </marker>
  </defs>
  <rect class="bg" x="0" y="0" width="960" height="420"/>

  <rect class="box core" x="310" y="70" width="340" height="150"/>
  <text class="text" x="480" y="112" text-anchor="middle">Lisp + BT runtime</text>
  <text class="small" x="480" y="142" text-anchor="middle">authored BTs, tick semantics, blackboard</text>
  <text class="small" x="480" y="166" text-anchor="middle">bounded planner/model lifecycle</text>
  <text class="small" x="480" y="190" text-anchor="middle">runtime contract</text>

  <rect class="box" x="60" y="82" width="190" height="126"/>
  <text class="text" x="155" y="126" text-anchor="middle">BT source</text>
  <text class="small" x="155" y="156" text-anchor="middle">Lisp DSL</text>
  <text class="small" x="155" y="180" text-anchor="middle">examples and scripts</text>

  <rect class="box" x="710" y="82" width="190" height="126"/>
  <text class="text" x="805" y="126" text-anchor="middle">host backend</text>
  <text class="small" x="805" y="156" text-anchor="middle">PyBullet, Webots, ROS2</text>
  <text class="small" x="805" y="180" text-anchor="middle">robot or simulator IO</text>

  <rect class="box" x="310" y="275" width="150" height="90"/>
  <text class="text" x="385" y="315" text-anchor="middle">planner</text>
  <text class="small" x="385" y="342" text-anchor="middle">budgeted jobs</text>

  <rect class="box" x="500" y="275" width="150" height="90"/>
  <text class="text" x="575" y="315" text-anchor="middle">async/VLA</text>
  <text class="small" x="575" y="342" text-anchor="middle">submit, poll, cancel</text>

  <rect class="box evidence" x="60" y="270" width="190" height="104"/>
  <text class="text" x="155" y="310" text-anchor="middle">event log</text>
  <text class="small" x="155" y="338" text-anchor="middle">canonical mbt.evt.v1</text>

  <rect class="box evidence" x="710" y="270" width="190" height="104"/>
  <text class="text" x="805" y="310" text-anchor="middle">replay tools</text>
  <text class="small" x="805" y="338" text-anchor="middle">validation and compare</text>

  <path class="arrow" d="M250 145 H300"/>
  <path class="bidir" d="M650 145 H700"/>
  <path class="bidir" d="M385 220 V264"/>
  <path class="bidir" d="M575 220 V264"/>
  <path class="arrow" d="M310 196 C245 230 220 250 190 267"/>
  <path class="arrow" d="M650 196 C715 230 740 250 770 267"/>
  <path class="arrow" d="M250 322 H700"/>

  <text class="label" x="272" y="132" text-anchor="middle">parse/compile</text>
  <text class="label" x="675" y="132" text-anchor="middle">observe / act</text>
  <text class="label" x="480" y="258" text-anchor="middle">submit, poll, cancel, result</text>
  <text class="label" x="480" y="310" text-anchor="middle">validated trace artefact</text>
  <text class="legend" x="480" y="398" text-anchor="middle">arrows show primary runtime data/control flow; two-headed arrows mean request plus observed result/state</text>
</svg>
